# The Great Editor v0.0.1
mtllib floor_1.mtl
o floor_1
v 6.432897688354401 -4.432011014161979 0
v 6.432897688354401 -4.432011014161979 -0.1
v 6.420109900127441 -6.535856620009718 0
v 6.420109900127441 -6.535856620009718 -0.1
v 0.9079493797601331 -6.535856620009718 0
v 0.9079493797601331 -6.535856620009718 -0.1
v 0.9079493797601331 -24.51423927801981 0
v 0.9079493797601331 -24.51423927801981 -0.1
v 40.84920236893668 -24.51423927801981 0
v 40.84920236893668 -24.51423927801981 -0.1
v 40.84920236893668 -4.432011014161979 0
v 40.84920236893668 -4.432011014161979 -0.1
v 18.455815306011246 -4.432011014161979 0
v 18.455815306011246 -4.432011014161979 -0.1
v 18.455815306011246 -2.1594125675271463 0
v 18.455815306011246 -2.1594125675271463 -0.1
v 8.509936544298899 -2.1594125675271463 0
v 8.509936544298899 -2.1594125675271463 -0.1
v 8.509936544298899 -4.432011014161979 0
v 8.509936544298899 -4.432011014161979 -0.1
vt 6.432897688354401 -4.432011014161979 0
vt 6.420109900127441 -6.535856620009718 0
vt 0.9079493797601331 -6.535856620009718 0
vt 0.9079493797601331 -24.51423927801981 0
vt 40.84920236893668 -24.51423927801981 0
vt 40.84920236893668 -4.432011014161979 0
vt 18.455815306011246 -4.432011014161979 0
vt 18.455815306011246 -2.1594125675271463 0
vt 8.509936544298899 -2.1594125675271463 0
vt 8.509936544298899 -4.432011014161979 0
vn 0 0 1
vn 0 0 -1
usemtl floor_1
s off
f 5/3/1 7/4/1 3/2/1
f 4/2/2 8/4/2 6/3/2
f 17/9/1 19/10/1 13/7/1
f 14/7/2 20/10/2 18/9/2
f 17/9/1 13/7/1 15/8/1
f 16/8/2 14/7/2 18/9/2
f 11/6/1 13/7/1 9/5/1
f 10/5/2 14/7/2 12/6/2
f 9/5/1 13/7/1 7/4/1
f 8/4/2 14/7/2 10/5/2
f 7/4/1 13/7/1 3/2/1
f 4/2/2 14/7/2 8/4/2
f 3/2/1 13/7/1 19/10/1
f 20/10/2 14/7/2 4/2/2
f 3/2/1 19/10/1 1/1/1
f 2/1/2 20/10/2 4/2/2
